<svg xmlns="http://www.w3.org/2000/svg" xmlns:xlink="http://www.w3.org/1999/xlink" width="80" zoomAndPan="magnify" viewBox="0 0 60 67.499998" height="90" preserveAspectRatio="xMidYMid meet" version="1.0"><defs><clipPath id="22f98b5ddc"><path d="M 4 6.972656 L 20 6.972656 L 20 22 L 4 22 Z M 4 6.972656 " clip-rule="nonzero"/></clipPath><clipPath id="96ad29ac2f"><path d="M 41 6.972656 L 56 6.972656 L 56 22 L 41 22 Z M 41 6.972656 " clip-rule="nonzero"/></clipPath></defs><path fill="#10f494" d="M 18.269531 31.148438 C 15.613281 25.789062 10.0625 25.371094 6.207031 27.824219 C 3.050781 29.824219 1.648438 33.703125 2.667969 37.300781 C 3.300781 39.550781 4.203125 41.675781 5.335938 43.664062 C 6.882812 46.378906 9.234375 48.550781 12.0625 49.882812 C 15.21875 51.386719 18.15625 52.144531 20.78125 52.144531 C 24.003906 52.144531 26.683594 50.980469 28.96875 49.128906 C 24.0625 44.390625 21.050781 36.769531 18.269531 31.148438 Z M 18.269531 31.148438 " fill-opacity="1" fill-rule="nonzero"/><g clip-path="url(#22f98b5ddc)"><path fill="#10f494" d="M 19.007812 14.402344 C 19.007812 14.886719 18.957031 15.371094 18.863281 15.851562 C 18.769531 16.328125 18.628906 16.792969 18.441406 17.242188 C 18.253906 17.695312 18.023438 18.121094 17.753906 18.527344 C 17.484375 18.933594 17.175781 19.308594 16.828125 19.652344 C 16.484375 20 16.109375 20.308594 15.703125 20.578125 C 15.296875 20.847656 14.871094 21.078125 14.417969 21.265625 C 13.96875 21.449219 13.503906 21.59375 13.027344 21.6875 C 12.546875 21.78125 12.066406 21.828125 11.578125 21.828125 C 11.089844 21.828125 10.605469 21.78125 10.128906 21.6875 C 9.648438 21.59375 9.183594 21.449219 8.734375 21.265625 C 8.28125 21.078125 7.855469 20.847656 7.449219 20.578125 C 7.042969 20.308594 6.667969 20 6.324219 19.652344 C 5.980469 19.308594 5.671875 18.933594 5.398438 18.527344 C 5.128906 18.121094 4.898438 17.695312 4.714844 17.242188 C 4.527344 16.792969 4.386719 16.328125 4.289062 15.851562 C 4.195312 15.371094 4.148438 14.886719 4.148438 14.402344 C 4.148438 13.914062 4.195312 13.429688 4.289062 12.953125 C 4.386719 12.472656 4.527344 12.007812 4.714844 11.558594 C 4.898438 11.105469 5.128906 10.679688 5.398438 10.273438 C 5.671875 9.867188 5.980469 9.492188 6.324219 9.148438 C 6.667969 8.800781 7.042969 8.496094 7.449219 8.222656 C 7.855469 7.953125 8.28125 7.722656 8.734375 7.535156 C 9.183594 7.351562 9.648438 7.210938 10.128906 7.113281 C 10.605469 7.019531 11.089844 6.972656 11.578125 6.972656 C 12.066406 6.972656 12.546875 7.019531 13.027344 7.113281 C 13.503906 7.210938 13.96875 7.351562 14.417969 7.535156 C 14.871094 7.722656 15.296875 7.953125 15.703125 8.222656 C 16.109375 8.496094 16.484375 8.800781 16.828125 9.148438 C 17.175781 9.492188 17.484375 9.867188 17.753906 10.273438 C 18.023438 10.679688 18.253906 11.105469 18.441406 11.558594 C 18.628906 12.007812 18.769531 12.472656 18.863281 12.953125 C 18.957031 13.429688 19.007812 13.914062 19.007812 14.402344 Z M 19.007812 14.402344 " fill-opacity="1" fill-rule="nonzero"/></g><path fill="#02e4fe" d="M 53.8125 27.824219 C 49.957031 25.371094 44.390625 25.777344 41.746094 31.148438 C 36.398438 41.914062 30.257812 60.027344 11.476562 51.105469 C 16.449219 55.390625 22.929688 57.980469 30.007812 57.980469 C 43 57.980469 53.957031 49.25 57.339844 37.34375 C 58.347656 33.75 56.964844 29.824219 53.8125 27.824219 Z M 53.8125 27.824219 " fill-opacity="1" fill-rule="nonzero"/><g clip-path="url(#96ad29ac2f)"><path fill="#02e4fe" d="M 55.859375 14.402344 C 55.859375 14.886719 55.8125 15.371094 55.714844 15.851562 C 55.621094 16.328125 55.480469 16.792969 55.292969 17.242188 C 55.105469 17.695312 54.878906 18.121094 54.605469 18.527344 C 54.335938 18.933594 54.027344 19.308594 53.683594 19.652344 C 53.335938 20 52.960938 20.308594 52.554688 20.578125 C 52.152344 20.847656 51.722656 21.078125 51.273438 21.265625 C 50.820312 21.449219 50.355469 21.59375 49.878906 21.6875 C 49.398438 21.78125 48.917969 21.828125 48.429688 21.828125 C 47.941406 21.828125 47.457031 21.78125 46.980469 21.6875 C 46.5 21.59375 46.035156 21.449219 45.585938 21.265625 C 45.136719 21.078125 44.707031 20.847656 44.300781 20.578125 C 43.894531 20.308594 43.519531 20 43.175781 19.652344 C 42.832031 19.308594 42.523438 18.933594 42.25 18.527344 C 41.980469 18.121094 41.75 17.695312 41.566406 17.242188 C 41.378906 16.792969 41.238281 16.328125 41.140625 15.851562 C 41.046875 15.371094 41 14.886719 41 14.402344 C 41 13.914062 41.046875 13.429688 41.140625 12.953125 C 41.238281 12.472656 41.378906 12.007812 41.566406 11.558594 C 41.75 11.105469 41.980469 10.679688 42.25 10.273438 C 42.523438 9.867188 42.832031 9.492188 43.175781 9.148438 C 43.519531 8.800781 43.894531 8.496094 44.300781 8.222656 C 44.707031 7.953125 45.136719 7.722656 45.585938 7.535156 C 46.035156 7.351562 46.5 7.210938 46.980469 7.113281 C 47.457031 7.019531 47.941406 6.972656 48.429688 6.972656 C 48.917969 6.972656 49.398438 7.019531 49.878906 7.113281 C 50.355469 7.210938 50.820312 7.351562 51.273438 7.535156 C 51.722656 7.722656 52.152344 7.953125 52.554688 8.222656 C 52.960938 8.496094 53.335938 8.800781 53.683594 9.148438 C 54.027344 9.492188 54.335938 9.867188 54.605469 10.273438 C 54.878906 10.679688 55.105469 11.105469 55.292969 11.558594 C 55.480469 12.007812 55.621094 12.472656 55.714844 12.953125 C 55.8125 13.429688 55.859375 13.914062 55.859375 14.402344 Z M 55.859375 14.402344 " fill-opacity="1" fill-rule="nonzero"/></g></svg>